<?xml version="1.0" encoding="utf-8"?>
<!-- Generator: Adobe Illustrator 23.0.3, SVG Export Plug-In . SVG Version: 6.00 Build 0)  -->
<svg version="1.1" id="Layer_1" xmlns="http://www.w3.org/2000/svg" xmlns:xlink="http://www.w3.org/1999/xlink" x="0px" y="0px"
	 viewBox="0 0 458 447" style="enable-background:new 0 0 458 447;" xml:space="preserve">
<style type="text/css">
	.st0{fill:#FFFFFF;stroke:#000000;stroke-miterlimit:10;}
	.st1{fill:#863AB5;}
</style>
<path class="st0" d="M183.5,296.5"/>
<g>
	<path class="st1" d="M373.78,37.41C322.6,6.51,264.73,9.72,264.73,9.72H93.24L40.16,271.03l93.91,65.33l49-228.65h69.41
		c12.87-0.44,23.81,0.95,33.09,3.78C295.03,70.61,330.61,39.74,373.78,37.41z"/>
	<path class="st1" d="M379.05,229.16c-16.67,0-32.35-4.25-46.01-11.73c-2.34,21.36-7.07,37.27-7.07,37.27
		c-32.66,85.74-102.07,81.66-102.07,81.66h-81.66L7.5,434.35h204.15c134.74-4.08,187.82-89.83,187.82-89.83
		c38.48-51.31,48.97-105.96,50.24-146.4C432.17,217.2,407.01,229.16,379.05,229.16z"/>
</g>
<circle class="st1" cx="379.05" cy="132.21" r="63.29"/>
</svg>
